<?xml version="1.0" encoding="utf-8"?>
<!-- Generator: Adobe Illustrator 23.0.3, SVG Export Plug-In . SVG Version: 6.00 Build 0)  -->
<svg version="1.1" id="Layer_1" xmlns="http://www.w3.org/2000/svg" xmlns:xlink="http://www.w3.org/1999/xlink" x="0px" y="0px"
	 viewBox="0 0 489.8 205" style="enable-background:new 0 0 489.8 205;" xml:space="preserve">
<style type="text/css">
	.st0{fill:#7A213F;}
</style>
<path class="st0" d="M27.8,59c0-5.6-1.1-6.8-6-6.8h-4.7v28.6h5.5c4.7,0,5.2-1.3,5.2-6.8V59L27.8,59z M21.8,41c4.6,0,6-0.9,6-7.4
	V17.8c0-4.7-1.1-6.7-5.5-6.7c-1.9,0-3.3,0-5.2,0.4V41H21.8L21.8,41z M0,1.7C6.8,0.8,15.7,0,22.6,0c10.1,0,22.5,1.7,22.5,14.9v18.5
	c0,6.7-2.4,9.9-6.3,11.2v0.1c4.2,0.5,6.3,5.2,6.3,11v23.8C45.1,92,31.6,92,23,92H0V1.7L0,1.7z"/>
<path class="st0" d="M51,24.5L66,23l1.2,5.2c4.8-2.8,10.1-4.6,13.2-4.6c0,0-1.1,13.4-1.2,13.4c-3.9,0-7.8,0.2-10.9,0.6v54.3H51V24.5
	L51,24.5z"/>
<path class="st0" d="M108.6,40.4c0-4.8-1.7-6.3-4-6.3c-2.4,0-4.1,1.5-4.1,6.3V76c0,4.8,1.7,6.4,4.2,6.4c2.3,0,4-1.6,4-6.4
	L108.6,40.4L108.6,40.4z M83.2,37.9c0-13.2,11.2-14.9,21.4-14.9c10,0,21.3,1.6,21.3,14.9v41c0,13.1-11.2,14.6-21.3,14.6
	c-10.2,0-21.4-1.5-21.4-14.6L83.2,37.9L83.2,37.9z"/>
<path class="st0" d="M157.6,40.4c0-4.8-1.7-6.3-4-6.3c-2.4,0-4.1,1.5-4.1,6.3V76c0,4.8,1.7,6.4,4.2,6.4c2.3,0,4-1.6,4-6.4
	L157.6,40.4L157.6,40.4z M132.1,37.9c0-13.2,11.2-14.9,21.4-14.9c10,0,21.3,1.6,21.3,14.9v41c0,13.1-11.2,14.6-21.3,14.6
	c-10.2,0-21.4-1.5-21.4-14.6V37.9L132.1,37.9z"/>
<path class="st0" d="M198.7,55l9-30.4h17.8l-10.2,30.8l11.6,36.5H208L198.7,55L198.7,55z M181.2,5l17.2-5v92h-17.3V5H181.2z"/>
<polygon class="st0" points="230.7,5.2 248,0 248,92 230.7,92 "/>
<path class="st0" d="M305.6,24.5l15-1.5l1.1,4.4c3.6-2.8,9.5-4.3,14.9-4.3c9.4,0,11.5,4.4,11.5,18.6v50.2h-17.3V39.2
	c0-3.3-0.5-4.8-2.9-4.8c0,0-2,0-5.1,1.3v56.2h-17.2V24.5L305.6,24.5z"/>
<path class="st0" d="M221.2,111c0-13.1,10.6-14.9,20.6-14.9c9.4,0,20.5,1.6,20.5,13.9v12.6l-16,0.9v-11.1c0-4.1-1.4-5.9-4.5-5.9
	c-3.2,0-4.6,1.8-4.6,5.9v54.3c0,5,1,6.5,4.6,6.5c3.5,0,4.5-1.5,4.5-6.5V156l16.1-0.6v15c0,11.5-12.2,13-20.7,13
	c-9.7,0-20.5-1.2-20.5-13V111L221.2,111z"/>
<path class="st0" d="M291.2,133.9c0-4.5-1.6-5.9-3.7-5.9c-2.2,0-3.9,1.4-3.9,5.9v33.3c0,4.5,1.6,6,3.9,6c2.1,0,3.8-1.5,3.8-6
	L291.2,133.9L291.2,133.9z M267.5,131.5c0-12.4,10.5-13.9,20-13.9c9.4,0,19.9,1.5,19.9,13.9v38.3c0,12.3-10.5,13.6-19.9,13.6
	c-9.5,0-20-1.4-20-13.6V131.5L267.5,131.5z"/>
<polygon class="st0" points="313.7,100.9 329.8,96.1 329.8,182 313.7,182 "/>
<polygon class="st0" points="336.1,100.9 352.3,96.1 352.3,182 336.1,182 "/>
<path class="st0" d="M382.2,144.8v-11c0-4.5-1.5-5.9-3.9-5.9c-2.1,0-3.6,1.4-3.6,5.9v11H382.2L382.2,144.8z M358.6,131.4
	c0-11.7,10.1-13.7,19.8-13.7c9.8,0,19.9,1.4,19.9,13.8v24h-23.5v11.9c0,4.4,1.5,5.9,3.6,5.9c2.4,0,3.9-1.5,3.9-5.9v-5.5l16-0.9v8.9
	c0,12.3-10.1,13.6-19.9,13.6c-9.6,0-19.7-1.4-19.7-13.6L358.6,131.4L358.6,131.4z"/>
<path class="st0" d="M421.5,184.5c-0.6,1-1.1,3.3-1.1,5.3c0,3.8,1.6,4.9,3.9,4.9c2,0,3.8-1.1,3.8-4.9c0-2.7-1-5.2-4.7-5.2h-1.9
	V184.5z M428,133.9c0-4.5-1.7-5.9-3.7-5.9c-2.2,0-3.9,1.4-3.9,5.9v17c0,4.5,1.6,5.9,3.9,5.9c2,0,3.8-1.4,3.8-5.9L428,133.9
	L428,133.9z M407.9,182.4c-3.4-1.6-5.7-4.5-5.7-8.9c0-4.6,1.9-7.6,6.1-9.6c-2.2-2.1-3.9-4.9-3.9-9.7v-21.7c0-12.6,9.3-14.9,19-14.9
	h26.3V128l-5.9-0.4c0.1,1.3,0.3,2.5,0.3,3.9v22.6c0,11.4-11.5,12.9-20.1,12.9c-2.6,0-5.6,0-8-0.4c-1.1,0.9-1.7,2.3-1.7,3.6
	c0,3.8,3.1,4,9.8,4c9.5,0,20.1,1.4,20.1,13.6v4.2c0,11.5-11.5,13-20.1,13c-9.6,0-19.6-1.4-19.6-13
	C404.2,187.4,405.6,184.5,407.9,182.4"/>
<path class="st0" d="M473.8,144.8v-11c0-4.5-1.5-5.9-3.9-5.9c-2.1,0-3.6,1.4-3.6,5.9v11H473.8L473.8,144.8z M450.2,131.4
	c0-11.7,10.1-13.7,19.8-13.7c9.8,0,19.9,1.4,19.9,13.8v24h-23.5v11.9c0,4.4,1.5,5.9,3.6,5.9c2.4,0,3.9-1.5,3.9-5.9v-5.5l16-0.9v8.9
	c0,12.3-10.1,13.6-19.9,13.6c-9.6,0-19.7-1.4-19.7-13.6L450.2,131.4L450.2,131.4z"/>
<path class="st0" d="M298.6,101.7v-4.8V86.5V22.8h-17.3v56.8c-3.1,1.4-5.1,1.4-5.1,1.4c-2.4,0-3-1.5-3-4.9V22.8h-17.4v50.7
	c0,14.3,2.2,18.8,11.6,18.8c5.4,0,11.3-1.5,14.9-4.3v6.8v4.7c-0.2,3.8-1.4,5-4.5,5c-0.2,0-0.3,0-0.5,0v10.4c0.1,0,0.3,0,0.4,0
	C286.2,114.8,298.6,113.3,298.6,101.7"/>
</svg>
